<svg width="300" height="100" viewBox="0 0 300 100" fill="none" xmlns="http://www.w3.org/2000/svg">
  <!-- Icon Box -->
  <rect x="5" y="15" width="70" height="70" rx="12" stroke="url(#paint0_linear)" stroke-width="4"/>
  <line x1="5" y1="50" x2="75" y2="50" stroke="url(#paint0_linear)" stroke-width="2"/>
  <line x1="40" y1="15" x2="40" y2="85" stroke="url(#paint0_linear)" stroke-width="2"/>
  
  <!-- Top Left: Bar Chart -->
  <rect x="12" y="32" width="6" height="12" rx="1" fill="#00D2FF"/>
  <rect x="22" y="25" width="6" height="19" rx="1" fill="#00D2FF"/>
  <rect x="32" y="28" width="6" height="16" rx="1" fill="#00D2FF"/>
  
  <!-- Top Right: Line Chart -->
  <path d="M48 42L55 35L62 40L68 32" stroke="#B066FE" stroke-width="2" stroke-linecap="round"/>
  <circle cx="55" cy="35" r="2" fill="#B066FE"/>
  
  <!-- Bottom Left: Play Button -->
  <path d="M15 60L28 68L15 76V60Z" fill="#00D2FF"/>
  
  <!-- Bottom Right: Sliders -->
  <line x1="48" y1="62" x2="68" y2="62" stroke="#B066FE" stroke-width="2" stroke-linecap="round"/>
  <circle cx="55" cy="62" r="2" fill="#B066FE"/>
  <line x1="48" y1="70" x2="68" y2="70" stroke="#B066FE" stroke-width="2" stroke-linecap="round"/>
  <circle cx="62" cy="70" r="2" fill="#B066FE"/>
  <line x1="48" y1="78" x2="68" y2="78" stroke="#B066FE" stroke-width="2" stroke-linecap="round"/>
  <circle cx="52" cy="78" r="2" fill="#B066FE"/>

  <!-- Sparkle -->
  <path d="M70 10L72 18L80 20L72 22L70 30L68 22L60 20L68 18L70 10Z" fill="url(#paint1_radial)"/>
  
  <!-- Text -->
  <text x="90" y="45" font-family="Arial, sans-serif" font-weight="bold" font-size="28" fill="url(#paint2_linear)">AI Content</text>
  <text x="90" y="80" font-family="Arial, sans-serif" font-weight="bold" font-size="28" fill="url(#paint3_linear)">Dashboard</text>

  <defs>
    <linearGradient id="paint0_linear" x1="5" y1="15" x2="75" y2="85" gradientUnits="userSpaceOnUse">
      <stop stop-color="#00D2FF"/>
      <stop offset="1" stop-color="#928DFF"/>
    </linearGradient>
    <radialGradient id="paint1_radial" cx="0" cy="0" r="1" gradientUnits="userSpaceOnUse" gradientTransform="translate(70 20) rotate(90) scale(10)">
      <stop stop-color="white"/>
      <stop offset="1" stop-color="#B066FE"/>
    </radialGradient>
    <linearGradient id="paint2_linear" x1="90" y1="45" x2="250" y2="45" gradientUnits="userSpaceOnUse">
      <stop stop-color="#00D2FF"/>
      <stop offset="1" stop-color="#928DFF"/>
    </linearGradient>
    <linearGradient id="paint3_linear" x1="90" y1="80" x2="250" y2="80" gradientUnits="userSpaceOnUse">
      <stop stop-color="#00D2FF"/>
      <stop offset="1" stop-color="#B066FE"/>
    </linearGradient>
  </defs>
</svg>
